<?xml version="1.0" encoding="UTF-8" standalone="no"?>
<!DOCTYPE svg PUBLIC "-//W3C//DTD SVG 1.1//EN" "http://www.w3.org/Graphics/SVG/1.1/DTD/svg11.dtd">
<svg version="1.1" xmlns="http://www.w3.org/2000/svg" xmlns:xlink="http://www.w3.org/1999/xlink" preserveAspectRatio="xMidYMid meet" viewBox="0 0 640 640" width="40" height="40"><defs><path d="M312.86 425.36C351.75 425.36 390.63 413.45 429.52 389.64C462.06 397.78 487.86 409.68 506.9 425.36C525.95 441.03 539.84 457.3 548.57 474.17C558.89 501.75 564.05 524.76 564.05 543.21C564.05 570.89 558.39 575.65 545 588.45C536.07 596.98 524.56 602.14 510.48 603.93L418.81 603.93L418.81 531.31C417.62 521.39 414.05 513.45 408.1 507.5C402.14 501.55 393.81 497.58 383.1 495.6L241.43 495.6C229.92 497.58 221.19 501.55 215.24 507.5C209.29 513.45 206.11 521.39 205.71 531.31L205.71 603.93L117.62 603.93C98.57 601.94 84.29 595.6 74.76 584.88C60.48 568.81 59.29 556.61 60.48 539.64C61.67 522.68 66.43 497.68 78.33 474.17C90.24 450.65 99.17 436.96 123.57 418.21C139.84 405.71 164.05 396.19 196.19 389.64C235.08 413.45 273.97 425.36 312.86 425.36Z" id="g2sNyLrBY"></path><path d="M115.33 264.83C114.76 271.53 115.91 276.51 118.78 279.77C121.65 283.03 126.25 284.56 132.57 284.37L148.66 284.37C162.31 310.1 177.64 330.41 194.64 345.29C220.15 367.61 253.11 389.64 312.02 389.64C370.92 389.64 396.17 375.61 430.27 345.29C453.01 325.07 467.95 304.77 475.1 284.37L492.34 284.37C498.09 284.56 502.3 283.03 504.99 279.77C507.67 276.51 508.82 271.53 508.43 264.83L508.43 156.78C508.82 150.84 507.67 146.25 504.99 142.99C502.3 139.73 498.09 137.82 492.34 137.24L475.1 137.24C460.14 105.06 439.06 80.15 411.88 62.53C371.11 36.09 362.3 31.49 312.02 31.49C261.73 31.49 251.57 35.52 210.73 62.53C183.51 80.54 162.82 106.21 148.66 139.54L132.57 137.24L118.78 142.99L115.33 156.78L115.33 184.37L177.4 184.37C179.89 169.62 185.64 158.51 194.64 151.03C203.64 143.56 215.91 139.73 231.42 139.54L392.34 139.54C406.52 139.73 418.01 143.56 426.82 151.03C440.04 162.24 442.62 168.09 445.22 184.37C447.81 200.64 445.82 216.47 439.22 241.47C432.61 266.47 427.72 268.93 416.11 284.37C404.51 299.8 358.8 312.51 339.47 316.55C326.58 319.25 308.57 319.25 285.45 316.55C249.25 311.83 222.81 300.44 206.14 282.37C189.46 264.3 179.88 240.44 177.4 210.8" id="a3B18julC"></path><path d="M177.77 171.13L115.19 171.13L115.19 268.46L147.1 242.46L177.77 213.13L177.77 179.79L177.77 171.13Z" id="f1cUWiGcUz"></path><path d="M245.77 196.57L206.43 211.24L245.77 223.9L258.43 264.57L273.1 223.9L311.85 211.24L273.1 196.57L258.43 156.57L245.77 196.57Z" id="hKmFTSW1i"></path><path d="M247.1 535.11C244.09 538.22 242.09 543.33 241.1 550.44L241.1 603.93L277.1 603.93L277.1 550.44C276.09 544.66 274.09 540.22 271.1 537.11C268.11 534 264.12 532.22 259.14 531.78C254.12 530.89 250.11 532 247.1 535.11Z" id="b6s9SxsFIl"></path><path d="M384.43 550.15C384.43 560.45 376.07 568.81 365.77 568.81C355.47 568.81 347.1 560.45 347.1 550.15C347.1 539.84 355.47 531.48 365.77 531.48C376.07 531.48 384.43 539.84 384.43 550.15Z" id="hHdsqaFK1"></path></defs><g><g><g><use xlink:href="#g2sNyLrBY" opacity="1" fill="#114b5f" fill-opacity="1"></use><g><use xlink:href="#g2sNyLrBY" opacity="1" fill-opacity="0" stroke="#000000" stroke-width="1" stroke-opacity="0"></use></g></g><g><use xlink:href="#a3B18julC" opacity="1" fill="#114b5f" fill-opacity="1"></use><g><use xlink:href="#a3B18julC" opacity="1" fill-opacity="0" stroke="#000000" stroke-width="1" stroke-opacity="0"></use></g></g><g><use xlink:href="#f1cUWiGcUz" opacity="1" fill="#114b5f" fill-opacity="1"></use><g><use xlink:href="#f1cUWiGcUz" opacity="1" fill-opacity="0" stroke="#000000" stroke-width="1" stroke-opacity="0"></use></g></g><g><use xlink:href="#hKmFTSW1i" opacity="1" fill="#114b5f" fill-opacity="1"></use><g><use xlink:href="#hKmFTSW1i" opacity="1" fill-opacity="0" stroke="#000000" stroke-width="1" stroke-opacity="0"></use></g></g><g><use xlink:href="#b6s9SxsFIl" opacity="1" fill="#114b5f" fill-opacity="1"></use><g><use xlink:href="#b6s9SxsFIl" opacity="1" fill-opacity="0" stroke="#000000" stroke-width="1" stroke-opacity="0"></use></g></g><g><use xlink:href="#hHdsqaFK1" opacity="1" fill="#114b5f" fill-opacity="1"></use><g><use xlink:href="#hHdsqaFK1" opacity="1" fill-opacity="0" stroke="#000000" stroke-width="1" stroke-opacity="0"></use></g></g></g></g></svg>