<?xml version="1.0" encoding="UTF-8" standalone="no"?>
<!DOCTYPE svg PUBLIC "-//W3C//DTD SVG 1.1//EN" "http://www.w3.org/Graphics/SVG/1.1/DTD/svg11.dtd">
<svg version="1.1" xmlns="http://www.w3.org/2000/svg" xmlns:xlink="http://www.w3.org/1999/xlink" preserveAspectRatio="xMidYMid meet" viewBox="0 0 640 640" width="40" height="40"><defs><path d="M82.46 214.2C79.15 218.43 76.86 223.35 75.74 228.6C75.58 229.36 77.12 222.11 77.04 222.49C75.67 228.95 76.3 235.67 78.84 241.77C79.25 242.76 76.68 236.59 77.11 237.64C79.59 243.57 83.56 248.77 88.63 252.72C89.23 253.18 81.94 247.51 82.21 247.72C88.3 252.46 95.79 255.03 103.51 255.03C103.51 255.03 93.2 255.03 93.6 255.03C100.17 255.03 106.72 254.15 113.07 252.42C113.78 252.23 107.08 254.05 107.97 253.81C113.68 252.25 119.04 249.65 123.8 246.14C130.14 241.45 145.99 229.73 171.36 210.98C176.14 208.11 179.13 206.32 180.32 205.61C186.15 202.11 192.81 200.27 199.6 200.27C201.1 200.27 193.24 200.27 194.25 200.27C202.75 200.27 211.19 201.64 219.25 204.32C220.01 204.58 221.9 205.21 224.94 206.22L185.65 301.46L274.94 355.03C298.27 295.47 312.85 258.25 318.68 243.36C319.32 241.73 321.52 241.47 322.52 242.9C323.72 244.61 320.88 240.56 321.06 240.81C325.99 247.86 329.74 255.67 332.15 263.93C334.34 271.43 335.24 274.53 336.93 280.3C341.03 294.34 346.93 307.8 354.48 320.34C356.37 323.46 352.21 316.56 354.48 320.34C360.58 330.46 369.97 338.18 381.08 342.22C382.01 342.56 384.34 343.4 388.06 344.76C391.71 345.45 394 345.89 394.91 346.07C402.08 347.43 408.23 340.88 406.41 333.82C401.19 313.54 391.7 276.64 387.04 258.55C382.59 241.23 375.4 224.74 365.75 209.68C363.06 205.5 367.63 212.62 364.46 207.67C356.53 195.32 345.2 185.52 331.83 179.48C326.82 177.22 335.92 181.33 331.83 179.48C315.18 171.96 297.87 166.02 280.12 161.74C268.37 158.91 260.12 156.92 248.44 154.1C230.45 149.77 212.01 147.58 193.51 147.58C190.27 147.58 199.08 147.58 193.51 147.58C182.88 147.58 172.41 150.2 163.04 155.22C158.2 157.81 163.08 155.2 159.52 157.1C145.76 164.47 132.67 173.02 120.4 182.66C113.51 188.07 103.65 195.82 94.86 202.73C88.95 207.37 83.62 212.71 78.99 218.63C78.68 219.03 83.16 213.3 82.46 214.2Z" id="b5kY8gC1nF"></path><path d="M276 354C300.71 368.97 316.15 378.32 322.33 382.07C330.25 386.86 337.63 392.49 344.36 398.85C348.08 402.38 342.33 396.94 344.36 398.85C356.19 410.06 362.58 425.86 361.84 442.14C361.72 444.71 360.28 451.83 357.5 463.5C351.85 487.25 341.94 520 327.77 561.76C327.77 561.76 322.4 575.98 322.4 575.98C321.52 578.09 322.98 574.58 322.4 575.98C319.58 582.71 314.19 588.03 307.42 590.73C306.53 591.09 309.79 589.79 307.73 590.61C304.61 591.86 301.27 592.5 297.9 592.5C295.72 592.5 299.42 592.5 298.53 592.5C291.22 592.5 284.28 589.28 279.55 583.7C278.84 582.86 282.82 587.56 281.77 586.32C277.98 581.84 275.33 576.51 274.06 570.78C273.65 568.92 274.53 572.9 274.17 571.25C272.75 564.87 273.08 558.22 275.13 552.02C281.89 531.52 300.26 475.82 307.33 454.4C308.39 451.19 308.93 447.84 308.93 444.46C308.93 443.23 308.93 445.48 308.93 444.46C308.93 440.57 307.17 436.88 304.15 434.43C303.99 434.31 303.61 434 303 433.5C264.99 411.07 241.24 397.05 231.74 391.44C218.31 383.52 206.07 373.74 195.38 362.4C192.5 359.35 198.6 365.82 195.38 362.4C186.16 352.62 181.17 339.61 181.5 326.17C181.56 323.68 181.42 329.35 181.53 324.9C181.71 317.48 182.9 310.12 185.07 303.03C185.2 302.63 185.51 301.62 186 300L276 354Z" id="bRdrV4YOr"></path><path d="M204.15 414.46L189.15 449.96C186.35 454.96 184.6 458.09 183.9 459.34C177.2 471.32 166.25 480.36 153.22 484.68C151.24 485.33 155.92 483.78 151.53 485.24C146.09 487.04 140.39 487.96 134.66 487.96C117.45 487.96 77.76 487.96 61.37 487.96C52.95 487.96 44.59 486.51 36.67 483.67C34.89 483.03 39.06 484.53 36.67 483.67C31.01 481.64 26.46 477.36 24.08 471.84C22.98 469.27 24.83 473.57 24.08 471.84C20.65 463.85 21.59 454.65 26.57 447.52C27.48 446.21 24.97 449.82 26.57 447.52C29.57 443.22 33.64 439.79 38.38 437.55C41.72 435.98 46.11 434.97 51.55 434.52C60.03 433.82 85.08 433.62 126.71 433.95C128 433.96 129.29 433.85 130.55 433.63C131.87 433.39 131.09 433.53 131.7 433.42C135.19 432.81 138.28 430.83 140.29 427.92C140.56 427.53 139.54 429.01 140.13 428.15C141.14 426.69 142 425.14 142.69 423.52C145.35 417.31 152 401.79 162.65 376.96C166.91 382.32 169.57 385.67 170.64 387.01C176.94 394.93 184.48 401.76 192.98 407.25C194.47 408.21 198.19 410.62 204.15 414.46Z" id="b1vWTibPl"></path><path d="M371.55 322.5C371.55 330.56 374.22 336.59 379.55 340.59C384.89 344.59 392.89 346.56 403.55 346.5C407.8 346.5 414.64 346.5 424.05 346.5C438.18 346.5 442.97 346.5 447.69 346.5C455.81 346.5 463.81 344.52 470.99 340.73C473.91 339.19 476.26 337.28 478.05 335C479.55 333.09 480.61 331.42 481.24 329.97C484.01 323.56 484.28 316.34 481.97 309.74C481.19 307.49 482.35 310.83 481.55 308.53C479.36 302.25 474.23 297.43 467.82 295.64C465.56 295.01 468.71 295.89 466.38 295.24C459.86 293.42 453.12 292.5 446.36 292.5C444.18 292.5 438.75 292.5 430.05 292.5C433.53 250.08 435.71 223.58 436.58 212.97C439.22 180.75 445.31 148.9 454.73 117.98C456.01 113.79 452.47 125.39 455.45 115.62C459.16 103.44 466 92.46 475.28 83.75C477.33 81.83 472.45 86.41 475.28 83.75C480.85 78.53 489.67 79.09 494.53 84.97C496.94 87.88 492.74 82.8 494.53 84.97C502.48 94.58 508.64 105.54 512.72 117.32C515.99 126.76 511.69 114.34 512.98 118.05C523.65 148.89 530.3 180.97 532.77 213.51C535.46 249.03 536.89 281.65 537.05 311.39C537.43 378.38 535.68 381.94 529.05 432.46C524.64 466.15 518.47 493.16 510.55 513.5C500.89 532.17 491.55 541.5 482.55 541.5C473.55 541.5 465.39 531.17 458.05 510.5C446.8 479.98 440.3 453.96 438.55 432.46C436.8 410.96 435.3 393.98 434.05 381.5L379.55 381.5C380.89 399.81 382.55 416.8 384.55 432.46C387.55 455.96 390.8 482.74 401.55 513.5C406.39 527.33 411.45 539.19 416.75 549.07C422.55 559.89 430.64 569.32 440.46 576.68C456.3 588.56 470.83 594.5 484.05 594.5C502.55 594.5 520.72 585.83 538.55 568.5C550.05 554.51 559.55 536.17 567.05 513.5C574.55 490.83 580.05 463.81 583.55 432.46C587.89 396.41 589.89 356.05 589.55 311.39C589.3 277.57 587.57 240.47 584.37 200.09C582.5 176.4 578.8 152.89 573.33 129.76C570.53 117.96 567.27 107.21 563.55 97.5C558.92 85.42 553.36 74.46 546.85 64.63C538.15 51.45 526.05 40.87 511.84 33.98C505.98 31.14 511.83 33.98 506.4 31.35C491.34 24.05 473.77 24.05 458.71 31.35C453.27 33.98 461.71 29.89 456.5 32.42C440.29 40.27 427.02 53.09 418.61 69.01C415.6 74.7 418.51 69.19 415.25 75.36C407.47 90.08 401.35 105.6 396.97 121.66C393.24 135.37 390.1 149.65 387.55 164.5C383.55 187.83 380.89 215.5 379.55 247.5L371.55 322.5Z" id="cxNmfNMr3"></path><path d="M372.87 103.91C372.87 133.09 349.18 156.78 320 156.78C290.82 156.78 267.13 133.09 267.13 103.91C267.13 74.73 290.82 51.03 320 51.03C349.18 51.03 372.87 74.73 372.87 103.91Z" id="bxvcIosjM"></path></defs><g><g><g><use xlink:href="#b5kY8gC1nF" opacity="1" fill="#114b5f" fill-opacity="1"></use><g><use xlink:href="#b5kY8gC1nF" opacity="1" fill-opacity="0" stroke="#000000" stroke-width="1" stroke-opacity="0"></use></g></g><g><use xlink:href="#bRdrV4YOr" opacity="1" fill="#114b5f" fill-opacity="1"></use><g><use xlink:href="#bRdrV4YOr" opacity="1" fill-opacity="0" stroke="#000000" stroke-width="1" stroke-opacity="0"></use></g></g><g><use xlink:href="#b1vWTibPl" opacity="1" fill="#114b5f" fill-opacity="1"></use><g><use xlink:href="#b1vWTibPl" opacity="1" fill-opacity="0" stroke="#000000" stroke-width="1" stroke-opacity="0"></use></g></g><g><use xlink:href="#cxNmfNMr3" opacity="1" fill="#114b5f" fill-opacity="1"></use><g><use xlink:href="#cxNmfNMr3" opacity="1" fill-opacity="0" stroke="#000000" stroke-width="1" stroke-opacity="0"></use></g></g><g><use xlink:href="#bxvcIosjM" opacity="1" fill="#114b5f" fill-opacity="1"></use></g></g></g></svg>