<?xml version="1.0" encoding="UTF-8" standalone="no"?>
<!DOCTYPE svg PUBLIC "-//W3C//DTD SVG 1.1//EN" "http://www.w3.org/Graphics/SVG/1.1/DTD/svg11.dtd">
<svg version="1.1" xmlns="http://www.w3.org/2000/svg" xmlns:xlink="http://www.w3.org/1999/xlink" preserveAspectRatio="xMidYMid meet" viewBox="0 0 640 640" width="40" height="40"><defs><path d="M157.93 399.31L136.09 393.56L111.95 386.67L74.02 462.53L32.64 545.29C30 550.85 28.97 555.55 29.55 559.38C30.12 563.21 32.3 566.18 36.09 568.28L52.18 576.62C57.97 578.34 62.69 578.34 66.33 576.62C69.97 574.9 72.53 572.11 74.02 568.28L115.4 484.37L157.93 399.31Z" id="b1IfrzuG8J"></path><path d="M508.5 392.51L481.5 399.51L528 492.51L567 570.51C570.5 574.76 574 577.43 577.5 578.51C581 579.6 584.5 579.1 588 577.01L608 566.51C610 564.68 611.17 562.18 611.5 559.01C611.84 555.85 611.34 552.01 610 547.51L577.5 483.01L528 385.51L508.5 392.51Z" id="g2uIVuGkyV"></path><path d="" id="b20wOFAve5"></path><path d="M320 61.69C373.59 61.69 415.83 82.09 446.71 128.69C454.92 141.07 462.33 156.07 468.93 173.69L425.93 231.69C426.92 202.85 422.59 179.85 412.93 162.69C398.45 136.94 366.75 108.69 320 108.69C273.25 108.69 241.2 136.94 225.93 162.69C215.76 179.85 212.09 202.85 214.93 231.69L169.93 173.69C202.14 99.02 252.17 61.69 320 61.69Z" id="dEvJc8FX4"></path><path d="M184.77 294.19L144.77 287.19C147.1 282.85 148.44 277.19 148.77 270.19C149.27 259.69 144.27 250.19 128.77 249.19C113.27 248.19 104.77 257.94 102.77 270.19C100.77 282.44 109.77 292.19 120.77 294.19C128.1 295.52 146.1 299.52 174.77 306.19L157.93 366.19C123.25 357.19 96.86 347.52 78.77 337.19C51.63 321.69 24.23 289.94 30.23 264.19C36.23 238.44 47.63 226.94 81.77 206.19C104.53 192.35 135.53 181.35 174.77 173.19L214.77 227.19L194.77 273.19L184.77 294.19Z" id="d3Rt4f04R3"></path><path d="M149.93 275.39L183.93 289.39L209.93 229.39C228.42 238.39 246.76 245.05 264.93 249.39C283.11 253.72 301.13 255.72 319 255.39C327.18 282.62 327.18 295.95 319 295.39C306.73 294.54 293.93 307.5 293.93 320C293.93 332.5 310.73 345.01 319 345.39C324.51 345.64 324.51 359.01 319 385.51C293.63 386.45 266.61 384.74 237.93 380.39C209.26 376.03 182.26 371.3 156.93 366.19L121.93 310.39L143.93 295.39L118.35 305.39L89.93 317.39L156.93 327.39" id="jZaUTHhyp"></path><path d="M162.93 310.39L152.93 280.39C138.03 292.72 127.08 299.05 120.08 299.39C113.08 299.72 127.36 303.39 162.93 310.39Z" id="a8JaDmCjdH"></path><path d="M486.55 275.39L455.55 286.39L429.55 229.39C409.06 238.39 389.73 245.05 371.55 249.39C353.37 253.72 335.35 255.72 317.49 255.39C309.31 282.62 309.31 295.95 317.49 295.39C329.75 294.54 342.55 307.5 342.55 320C342.55 332.5 332.75 344.01 317.49 345.39C307.31 346.31 307.31 359.68 317.49 385.51C342.85 386.45 369.87 384.74 398.55 380.39C427.23 376.03 455.56 371.3 483.55 366.19L514.55 310.39L492.55 295.39L518.13 305.39L546.55 317.39L479.56 327.39" id="czoKcgLwG"></path><path d="M456.23 294.19L496.23 287.19C493.89 282.85 492.56 277.19 492.23 270.19C491.73 259.69 496.73 250.19 512.23 249.19C527.73 248.19 536.23 257.94 538.23 270.19C540.23 282.44 531.23 292.19 520.23 294.19C512.89 295.52 494.89 299.52 466.23 306.19L483.06 366.19C517.75 357.19 544.14 347.52 562.23 337.19C589.36 321.69 616.77 289.94 610.77 264.19C604.77 238.44 593.36 226.94 559.23 206.19C536.47 192.35 505.47 181.35 466.23 173.19L426.23 227.19L446.23 273.19L456.23 294.19Z" id="b1TrEIqti"></path><path d="M477.35 310.39L487.35 280.39C502.26 292.72 513.21 299.05 520.21 299.39C527.21 299.72 512.92 303.39 477.35 310.39Z" id="c7WkW7rN8J"></path></defs><g><g><g><use xlink:href="#b1IfrzuG8J" opacity="1" fill="#114b5f" fill-opacity="1"></use></g><g><use xlink:href="#g2uIVuGkyV" opacity="1" fill="#114b5f" fill-opacity="1"></use></g><g><g><use xlink:href="#b20wOFAve5" opacity="1" fill-opacity="0" stroke="#000000" stroke-width="1" stroke-opacity="0.07"></use></g></g><g><use xlink:href="#dEvJc8FX4" opacity="1" fill="#114b5f" fill-opacity="1"></use><g><use xlink:href="#dEvJc8FX4" opacity="1" fill-opacity="0" stroke="#114b5f" stroke-width="1" stroke-opacity="0"></use></g></g><g><use xlink:href="#d3Rt4f04R3" opacity="1" fill="#114b5f" fill-opacity="1"></use></g><g><use xlink:href="#jZaUTHhyp" opacity="1" fill="#114b5f" fill-opacity="1"></use><g><use xlink:href="#jZaUTHhyp" opacity="1" fill-opacity="0" stroke="#114b5f" stroke-width="1" stroke-opacity="0.1"></use></g></g><g><use xlink:href="#a8JaDmCjdH" opacity="1" fill="#114b5f" fill-opacity="1"></use><g><use xlink:href="#a8JaDmCjdH" opacity="1" fill-opacity="0" stroke="#114b5f" stroke-width="1" stroke-opacity="0.1"></use></g></g><g><use xlink:href="#czoKcgLwG" opacity="1" fill="#114b5f" fill-opacity="1"></use><g><use xlink:href="#czoKcgLwG" opacity="1" fill-opacity="0" stroke="#114b5f" stroke-width="1" stroke-opacity="0.1"></use></g></g><g><use xlink:href="#b1TrEIqti" opacity="1" fill="#114b5f" fill-opacity="1"></use></g><g><use xlink:href="#c7WkW7rN8J" opacity="1" fill="#114b5f" fill-opacity="1"></use><g><use xlink:href="#c7WkW7rN8J" opacity="1" fill-opacity="0" stroke="#114b5f" stroke-width="1" stroke-opacity="0.1"></use></g></g></g></g></svg>